# xmcd
#
# Track frame offsets:
#	150
#	15575
#	29279
#	36018
#	51652
#	53647
#	63494
#	72318
#	87744
#	95985
#	106047
#	114069
#	131601
#	152862
#	167950
#	178722
#	196630
#	222105
#	239922
#	257344
#
# Disc length: 3749 seconds
#
# Revision: 0
# Processed by: cddbd v1.5.1PL2 Copyright (c) Steve Scherf et al.
# Submitted via: dBpowerAMP V4.0
#
DISCID=1b0ea314
DTITLE=Yves Desquiotz&Guy Lepage - D&G
DYEAR=1900
DGENRE=
TTITLE0=Bondias
TTITLE1=Portugisen
TTITLE2=de Fräsch
TTITLE3=t'ass de Max
TTITLE4=op der Heizung
TTITLE5=Brëscht
TTITLE6=Daniel K
TTITLE7=de Kübbelböck
TTITLE8=Uli 1
TTITLE9=Uli 2
TTITLE10=Italiener
TTITLE11=l'Italiano
TTITLE12=Pompjéeen
TTITLE13=léiwe Papa Staat
TTITLE14=Quizmaster
TTITLE15=Schlumpfelidd
TTITLE16=D&G
TTITLE17=am Auto
TTITLE18=de Jérôme
TTITLE19=Bonus
EXTD=
EXTT0=
EXTT1=
EXTT2=
EXTT3=
EXTT4=
EXTT5=
EXTT6=
EXTT7=
EXTT8=
EXTT9=
EXTT10=
EXTT11=
EXTT12=
EXTT13=
EXTT14=
EXTT15=
EXTT16=
EXTT17=
EXTT18=
EXTT19=
PLAYORDER=
